<?xml version="1.0" standalone="no"?>
<!DOCTYPE svg PUBLIC "-//W3C//DTD SVG 20010904//EN"
 "http://www.w3.org/TR/2001/REC-SVG-20010904/DTD/svg10.dtd">
<svg version="1.0" xmlns="http://www.w3.org/2000/svg"
 width="700.000000pt" height="700.000000pt" viewBox="0 0 700.000000 700.000000"
 preserveAspectRatio="xMidYMid meet">
<metadata>
Created by potrace 1.14, written by Peter Selinger 2001-2017
</metadata>
<g transform="translate(0.000000,700.000000) scale(0.100000,-0.100000)"
fill="#000000" stroke="none">
<path d="M1220 6989 c-535 -61 -976 -417 -1145 -922 -75 -225 -70 -26 -70
-2567 0 -2145 1 -2280 18 -2370 94 -500 437 -897 910 -1055 225 -75 26 -70
2567 -70 2145 0 2280 1 2370 18 571 108 999 536 1107 1107 17 90 18 225 18
2370 0 2145 -1 2280 -18 2370 -107 567 -526 990 -1097 1107 -79 16 -240 17
-2335 19 -1237 1 -2284 -2 -2325 -7z m3335 -691 c183 -63 324 -186 405 -353
51 -104 70 -187 70 -306 0 -190 -68 -358 -200 -489 -85 -85 -155 -129 -262
-168 -71 -26 -80 -27 -363 -32 -257 -4 -287 -7 -265 -19 14 -8 169 -95 345
-194 176 -98 344 -197 373 -219 167 -125 291 -312 348 -524 15 -55 19 -103 18
-234 0 -158 -1 -169 -32 -260 -46 -139 -109 -239 -216 -346 -135 -135 -280
-212 -460 -243 -39 -7 -355 -11 -895 -11 -942 0 -913 -2 -1068 75 -307 152
-453 517 -339 846 35 100 80 172 161 254 79 81 163 134 274 173 74 26 85 27
358 32 l282 5 -352 198 c-194 109 -381 221 -417 250 -322 261 -435 726 -265
1093 115 249 338 428 605 485 79 17 148 18 950 16 l865 -2 80 -27z m-3190
-4213 c150 -42 269 -134 323 -252 54 -118 64 -275 26 -413 -68 -243 -312 -367
-664 -339 -334 28 -521 239 -497 559 20 254 170 411 438 459 78 14 302 5 374
-14z m1555 -95 l0 -100 -390 0 -389 0 -6 -32 c-3 -18 -10 -64 -15 -103 -6 -38
-13 -83 -16 -100 l-7 -30 41 37 c84 76 190 115 337 124 298 19 515 -125 515
-342 0 -92 -22 -152 -77 -214 -94 -105 -244 -152 -483 -151 -171 0 -273 18
-375 66 -109 51 -177 134 -200 243 l-7 32 139 0 138 -1 20 -31 c30 -47 63 -67
140 -83 134 -28 325 -13 393 31 75 49 82 156 15 218 -47 44 -118 59 -262 54
-135 -4 -186 -19 -258 -74 -31 -24 -37 -24 -170 -22 l-139 3 43 285 c23 157
42 286 43 288 0 1 218 2 485 2 l485 0 0 -100z m704 -37 c26 -46 51 -85 55 -87
4 -3 34 40 66 94 32 55 62 100 68 100 10 0 187 -99 187 -105 0 -2 -27 -49 -60
-105 -33 -56 -60 -104 -60 -106 0 -2 56 -4 125 -4 l125 0 0 -110 0 -110 -125
0 c-69 0 -125 -2 -125 -4 0 -3 27 -53 61 -111 33 -59 59 -108 57 -110 -8 -8
-181 -105 -187 -105 -4 0 -33 47 -66 105 -32 57 -62 102 -66 100 -4 -3 -28
-42 -53 -88 -74 -135 -58 -129 -165 -68 -50 29 -91 58 -91 64 1 7 27 57 59
112 l59 100 -124 3 -124 3 0 109 0 109 123 3 124 3 -59 98 c-32 55 -58 103
-58 107 0 5 42 33 92 63 82 49 94 53 104 38 6 -9 32 -53 58 -98z m1494 43 c34
-21 62 -41 62 -45 0 -4 -26 -52 -59 -107 l-59 -99 124 -3 124 -3 0 -109 0
-109 -124 -3 -123 -3 58 -103 c33 -57 59 -107 59 -112 0 -14 -181 -113 -190
-104 -5 5 -32 50 -60 99 -28 50 -55 93 -59 98 -4 4 -34 -40 -67 -98 -32 -58
-62 -105 -66 -105 -6 0 -178 97 -186 105 -2 2 24 51 57 110 34 59 61 109 61
111 0 2 -56 4 -125 4 l-125 0 0 110 0 110 125 0 c69 0 125 2 125 4 0 2 -27 50
-60 105 -33 56 -60 103 -60 105 0 6 177 106 188 106 5 0 36 -45 67 -100 31
-55 60 -98 64 -95 4 2 34 49 66 104 l59 100 30 -18 c17 -10 59 -35 94 -55z
m876 -43 c26 -46 51 -85 55 -87 4 -3 34 40 65 94 32 55 62 100 68 100 10 0
188 -100 188 -105 0 -2 -27 -49 -60 -104 -33 -56 -60 -103 -60 -106 0 -3 56
-5 125 -5 l125 0 0 -110 0 -110 -125 0 c-69 0 -125 -2 -125 -6 0 -3 27 -52 61
-110 33 -58 59 -107 57 -109 -9 -9 -181 -105 -187 -105 -4 0 -34 47 -66 105
-32 57 -62 102 -66 99 -5 -3 -29 -42 -53 -87 -74 -135 -59 -128 -165 -68 -50
29 -91 57 -91 62 0 5 27 56 60 114 l59 105 -124 0 -125 0 0 110 0 110 125 0
124 0 -59 101 c-33 55 -60 104 -60 109 0 5 42 33 92 63 82 49 94 53 104 38 6
-9 32 -53 58 -98z m356 -1243 l0 -150 -1482 2 -1483 3 -3 134 c-1 74 0 141 2
148 4 11 280 13 1486 13 l1480 0 0 -150z"/>
<path d="M2752 6109 c-138 -20 -266 -85 -371 -189 -74 -73 -121 -148 -159
-248 -34 -92 -42 -270 -17 -375 36 -152 124 -294 238 -389 40 -33 232 -146
503 -298 240 -135 441 -246 446 -248 4 -2 8 163 8 367 l0 370 24 28 24 28 504
5 c493 5 504 6 559 28 126 50 233 157 279 279 28 73 37 195 20 272 -42 190
-209 343 -405 371 -88 12 -1565 11 -1653 -1z"/>
<path d="M3608 4494 l-3 -376 -28 -24 -28 -24 -464 0 c-300 0 -483 -4 -517
-11 -145 -30 -271 -130 -335 -265 -32 -67 -38 -90 -41 -167 -8 -164 35 -274
147 -379 74 -70 157 -112 252 -128 44 -8 316 -10 874 -8 l810 3 80 27 c110 38
197 91 274 169 122 122 181 255 189 425 7 156 -37 315 -122 440 -35 52 -131
150 -181 184 -22 15 -231 134 -465 265 -234 131 -428 239 -432 242 -4 2 -9
-166 -10 -373z"/>
<path d="M988 1874 c-65 -23 -126 -78 -154 -138 -19 -41 -24 -68 -24 -137 0
-182 75 -273 250 -300 139 -21 276 10 342 78 64 67 73 95 73 218 0 121 -14
163 -72 216 -62 58 -108 73 -243 76 -96 2 -136 -1 -172 -13z"/>
</g>
</svg>
